<?xml version="1.0" encoding="utf-8"?>
<!-- Generator: Adobe Illustrator 27.9.0, SVG Export Plug-In . SVG Version: 6.00 Build 0)  -->
<svg version="1.1" id="Layer_1" xmlns="http://www.w3.org/2000/svg" xmlns:xlink="http://www.w3.org/1999/xlink" x="0px" y="0px"
	 viewBox="0 0 253.8 62.5" style="enable-background:new 0 0 253.8 62.5;" xml:space="preserve">
<style type="text/css">
	.st0{fill:#686471;}
	.st1{fill:#3D3A44;}
	.st2{fill:#F6F6F6;}
	.st3{fill:#222222;}
	.st4{fill:#C8CADF;}
	.st5{fill:#77DD77;}
	.st6{fill:#DFDFDF;}
	.st7{fill:none;}
	.st8{fill:#219321;}
	.st9{fill:#C9F7C9;}
	.st10{fill:#DE78AB;stroke:#222222;stroke-width:0.1248;stroke-miterlimit:10;}
	.st11{fill:#B6E2FF;}
	.st12{fill:#FFC5E5;}
	.st13{fill:#F6F6F6;stroke:#DE78AB;stroke-width:0.1248;stroke-miterlimit:10;}
</style>
<g>
	<g>
		<g>
			<g>
				<ellipse class="st0" cx="233.2" cy="31.5" rx="20" ry="18.6"/>
			</g>
			<g>
				<path class="st1" d="M214.2,28.9c0,0,0.9,4.7,3.8,8l1.6,2.6l-4-0.4l-2.5-4.8l0.4-2.3l-0.6-2.9L214.2,28.9z"/>
			</g>
			<g>
				<g>
					<path class="st2" d="M253.4,32.3L253.4,32.3L253.4,32.3z"/>
				</g>
				<g>
					<path class="st2" d="M235.3,40.9c-1.9,5.6-7.2,4.5-7.2,4.5c-4.8-0.7-6.1-5.7-6.1-5.7c-6.9-1.7-8.6-4.3-9-5.8
						C213.6,44,222.2,52,233.3,52c13.5,0,19.8-10.4,20.2-18.1C252.1,40.2,235.3,40.9,235.3,40.9z"/>
					<path class="st3" d="M233.2,52.1c-2.7,0-5.3-0.5-7.8-1.4c-2.4-0.9-4.5-2.2-6.3-3.9c-3.7-3.4-5.9-8-6.2-12.9h0.2
						c0.2,0.7,0.7,1.8,2,2.8c1.6,1.2,3.9,2.2,6.9,3h0.1v0.1c0,0,0.4,1.3,1.3,2.6c0.9,1.2,2.4,2.7,4.8,3.1l0,0c0,0,1.3,0.3,2.9-0.2
						c1.4-0.4,3.3-1.5,4.3-4.3v-0.1h0.1c0.1,0,4.3-0.2,8.6-1.2c2.5-0.6,4.6-1.3,6.1-2.1c1.9-1.1,3.1-2.3,3.4-3.7h0.2
						c-0.1,2-0.6,4.1-1.5,6.1c-0.9,2.2-2.2,4.2-3.8,5.9C245.7,48.7,240.9,52.1,233.2,52.1z M213.1,34.4c1,10,9.5,17.5,20.1,17.5
						c13.5,0,19.4-10.4,20.1-17.3c-0.5,1.2-1.6,2.2-3.2,3.1c-1.6,0.9-3.7,1.6-6.2,2.1c-4.1,0.9-8.1,1.1-8.6,1.2
						c-0.5,1.3-1.1,2.3-1.9,3c-0.7,0.6-1.5,1.1-2.4,1.3c-1.5,0.4-2.9,0.2-2.9,0.2c-1.1-0.2-2.1-0.6-3-1.2c-0.7-0.5-1.4-1.2-1.9-2
						c-0.9-1.2-1.2-2.3-1.3-2.6c-3.1-0.8-5.4-1.8-7-3C213.9,35.9,213.3,35.1,213.1,34.4z"/>
				</g>
			</g>
			<g>
				<path class="st4" d="M233.2,51.9c2.9,0,5.4-0.5,7.6-1.3c-15.2,1.1-21.4-8.6-23.2-12.4c-1.1-0.5-1.9-1-2.6-1.6
					c-1.1-0.8-1.6-1.7-1.9-2.3C214.1,44.5,222.6,51.9,233.2,51.9z"/>
			</g>
			<g>
				<path class="st2" d="M213.6,33.1c0,0-1.6,3.5,8.6,6.2c0,0,1.3,5,6.7,5.6c0,0,5.1,0.4,6.3-4c0-0.1,0.1-0.1,0.1,0
					c-0.2,1.3-1.3,4.4-6.4,4.5c0,0-4.8,0.3-6.9-5.8c0,0-6.9-1.5-8.8-4.8c0,0-0.9-1.5,0-2.5l1.3-0.4L213.6,33.1z"/>
				<path class="st3" d="M228.7,45.6c-0.4,0-1.4-0.1-2.6-0.6c-0.9-0.4-1.6-1-2.3-1.7c-0.8-0.9-1.5-2.1-2-3.5
					c-0.3-0.1-1.9-0.5-3.7-1.2c-1.2-0.5-2.1-1-2.9-1.5c-1-0.7-1.8-1.4-2.2-2.2c0,0-0.3-0.4-0.4-0.9c-0.2-0.7-0.1-1.3,0.4-1.7
					c0,0,0,0,0.1,0l1.3-0.4c0.1,0,0.1,0,0.1,0.1c0,0.1,0,0.1,0,0.1l-0.9,1.1c-0.1,0.1-0.3,0.7,0.2,1.5c0.6,1.3,2.6,3.1,8.4,4.6
					c0.1,0,0.1,0.1,0.1,0.1s0.4,1.3,1.3,2.6c0.9,1.2,2.6,2.7,5.3,3c0,0,1.3,0.1,2.7-0.4c1.9-0.6,3.1-1.8,3.6-3.6
					c0-0.1,0.1-0.1,0.2-0.1c0.1,0,0.1,0.1,0.1,0.1c-0.1,0.6-0.4,1.8-1.4,2.7c-1.2,1.2-2.9,1.8-5.2,1.9
					C228.8,45.6,228.8,45.6,228.7,45.6z M213.2,32.5c-0.8,1,0,2.4,0,2.4c1,1.7,3.3,2.9,5,3.6c1.9,0.8,3.7,1.2,3.7,1.2
					c0.1,0,0.1,0,0.1,0.1c1.1,3.1,2.9,4.5,4.2,5.1c1.4,0.7,2.6,0.6,2.6,0.6c4.2-0.1,5.6-2.2,6.2-3.6c-0.3,0.7-0.7,1.2-1.2,1.7
					c-0.6,0.5-1.3,0.9-2.2,1.2c-1.4,0.5-2.7,0.4-2.8,0.4c-1.3-0.2-2.4-0.5-3.4-1.1c-0.8-0.5-1.5-1.2-2.1-1.9
					c-0.9-1.2-1.3-2.4-1.3-2.6c-5.9-1.6-7.9-3.4-8.5-4.7c-0.5-1-0.2-1.6-0.2-1.6l0,0l0.7-0.9L213.2,32.5z"/>
			</g>
			<g>
				<g>
					<g>
						<path class="st0" d="M222.2,39.3c0,0,1.3,5,6.7,5.6c0,0,5.1,0.4,6.3-4c0-0.1,0.1-0.1,0.1,0c-0.2,1.3-1.3,4.4-6.4,4.5
							c0,0-4.8,0.3-6.9-5.8"/>
					</g>
					<g>
						<path class="st3" d="M228.7,45.6c-0.4,0-1.4-0.1-2.6-0.6c-0.9-0.4-1.6-1-2.3-1.7c-0.9-0.9-1.5-2.1-2-3.5l0.2-0.1
							c1.1,3.1,2.9,4.5,4.2,5.1c1.4,0.7,2.6,0.6,2.6,0.6c4.2-0.1,5.6-2.2,6.2-3.6c-0.3,0.7-0.7,1.2-1.2,1.7
							c-0.6,0.5-1.3,0.9-2.2,1.2c-1.4,0.5-2.7,0.4-2.8,0.4c-1.3-0.2-2.4-0.5-3.4-1.1c-0.8-0.5-1.5-1.2-2.1-1.9
							c-1-1.3-1.3-2.6-1.3-2.6l0.2-0.1c0,0,0.4,1.3,1.3,2.6c0.9,1.2,2.6,2.7,5.3,3c0,0,1.3,0.1,2.7-0.4c1.9-0.6,3.1-1.8,3.6-3.6
							c0-0.1,0.1-0.1,0.2-0.1c0.1,0,0.1,0.1,0.1,0.1c-0.1,0.6-0.4,1.8-1.4,2.7c-1.2,1.2-2.9,1.8-5.2,1.9
							C228.8,45.6,228.8,45.6,228.7,45.6z"/>
					</g>
				</g>
				<g>
					<path class="st2" d="M222.2,39.3"/>
				</g>
				<g>
					<path class="st2" d="M221.9,39.7"/>
				</g>
			</g>
			<g>
				<path class="st2" d="M252.8,32.8c0,0,0.9,3.2-5.1,5.3c0,0-4.7,2.2-12.4,2.4l-0.1,0.4c0,0,5.6,0.4,12.5-2.2c0,0,6.7-2.1,5.5-6.3
					l-0.6-0.8l-0.4,1.2L252.8,32.8z"/>
				<path class="st3" d="M236,41c-0.5,0-0.7,0-0.7,0s-0.1,0-0.1-0.1v-0.1l0.1-0.4c0-0.1,0.1-0.1,0.1-0.1c4-0.1,7.1-0.8,9.1-1.3
					c2.1-0.6,3.3-1.1,3.3-1.1l0,0c3.1-1.1,4.3-2.5,4.7-3.4c0.5-0.9,0.4-1.6,0.3-1.8l-0.5-0.1c0,0-0.1,0-0.1-0.1v-0.1l0.4-1.2
					c0-0.1,0.1-0.1,0.1-0.1c0.1,0,0.1,0,0.1,0.1l0.6,0.8l0,0c0.3,1,0.2,2-0.4,2.9c-0.4,0.7-1.1,1.4-2,2c-1.5,1-3.2,1.6-3.2,1.6
					c-3.6,1.4-6.8,1.9-8.9,2.1C237.6,41,236.6,41,236,41z M235.4,40.8c0.4,0,1.7,0.1,3.6-0.2c2.1-0.2,5.3-0.8,8.9-2.1l0,0
					c0,0,1.7-0.5,3.2-1.6c2-1.4,2.8-3,2.3-4.7l-0.5-0.7l-0.4,1l0.5,0.1c0.1,0,0.1,0.1,0.1,0.1c0,0.1,0.2,0.8-0.3,1.9
					c-0.3,0.6-0.8,1.2-1.5,1.8c-0.9,0.7-2,1.3-3.3,1.8c-0.1,0.1-1.3,0.6-3.3,1.1c-2,0.5-5.1,1.2-9,1.3L235.4,40.8z"/>
			</g>
			<g>
				<path class="st5" d="M221.8,37c0,0,0.9-4.8,6.2-4.6c0,0,5.5,0.1,7.1,5.7c0,0,15.6-0.2,18.5-6.5c0-14.4-11-21.2-20.5-21.2
					c-8.6,0-20.4,5.7-20.4,21.3c0,0.1,0,0.1,0,0.1C212.7,31.9,213.6,35,221.8,37z"/>
				<path class="st3" d="M235.1,38.1L235.1,38.1c-0.8-2.9-2.7-4.3-4.1-4.9c-1.6-0.7-2.9-0.7-2.9-0.7l0,0c-2.7-0.2-4.2,1.1-5,2.2
					c-0.9,1.2-1.1,2.4-1.1,2.4v0.1h-0.1c-1.9-0.5-3.5-1-4.9-1.6c-1.1-0.5-2-1.1-2.8-1.7c-1.3-1.1-1.5-1.9-1.5-1.9l0,0v-0.1v-0.1
					c0-3.7,0.7-7.1,2-9.9c1.2-2.6,2.9-4.8,5-6.6c1.9-1.6,4.2-2.8,6.6-3.7c2.2-0.8,4.6-1.2,6.8-1.2c5.1,0,10.2,1.9,13.9,5.2
					c3.1,2.7,6.7,7.7,6.7,16l0,0l0,0c-0.7,1.5-2.1,2.7-4.2,3.7c-1.7,0.8-3.8,1.5-6.2,1.9c-4.2,0.8-8.1,0.9-8.2,0.9L235.1,38.1z
					 M228.1,32.3c0.1,0,1.4,0.1,3,0.7c0.9,0.4,1.7,1,2.4,1.7c0.8,0.9,1.4,2,1.8,3.2c0.5,0,4.1-0.1,8.1-0.9c2.5-0.5,4.5-1.1,6.2-1.9
					c2.1-1,3.4-2.2,4.1-3.6c0-13.8-10.3-21.1-20.4-21.1c-7.1,0-20.3,4.4-20.3,21.2v0.1v0.1c0.1,0.1,0.3,0.9,1.5,1.8
					c1.1,0.9,3.3,2.3,7.6,3.3c0.1-0.3,0.4-1.4,1.1-2.4c0.5-0.7,1.2-1.3,1.9-1.6C225.7,32.4,226.9,32.2,228.1,32.3z"/>
			</g>
			<g>
				<path class="st6" d="M233.8,38.6c0,2.7-1.9,4.8-4.6,4.8c-2.7,0-5.7-2.5-5.7-5.2c0-2.7,2.1-4.6,4.8-4.6S233.8,35.8,233.8,38.6z"
					/>
				<path class="st3" d="M229.1,43.4c-1.3,0-2.8-0.6-3.9-1.6c-1.2-1.1-1.9-2.4-1.9-3.7c0-1.3,0.5-2.5,1.4-3.4
					c0.9-0.9,2.1-1.3,3.4-1.3c1.3,0,2.7,0.6,3.8,1.5c1.2,1,1.8,2.3,1.8,3.6c0,1.3-0.5,2.6-1.3,3.4C231.6,42.9,230.4,43.4,229.1,43.4
					z M228.2,33.6c-2.7,0-4.7,1.9-4.7,4.5c0,2.5,2.8,5.1,5.6,5.1c2.6,0,4.5-2,4.5-4.7c0-1.3-0.7-2.5-1.7-3.5
					C230.8,34.1,229.5,33.6,228.2,33.6z"/>
			</g>
			<g>
				<path class="st6" d="M233.6,38.9c0,2.7-1.9,4.8-4.6,4.8c-2.7,0-5.7-2.5-5.7-5.2c0-2.7,2.1-4.6,4.8-4.6
					C230.7,33.8,233.6,36.2,233.6,38.9z"/>
				<path class="st3" d="M229,43.7c-1.3,0-2.8-0.6-3.9-1.6c-1.2-1.1-1.9-2.4-1.9-3.7c0-1.3,0.5-2.5,1.4-3.4c0.9-0.9,2.1-1.3,3.4-1.3
					c1.3,0,2.7,0.6,3.8,1.5c1.2,1,1.8,2.3,1.8,3.6c0,1.3-0.5,2.6-1.3,3.4C231.5,43.2,230.3,43.7,229,43.7z M228.1,33.9
					c-2.7,0-4.7,1.9-4.7,4.5c0,2.5,2.8,5.1,5.6,5.1c2.6,0,4.5-2,4.5-4.7c0-1.3-0.7-2.5-1.7-3.5C230.7,34.5,229.3,33.9,228.1,33.9z"
					/>
			</g>
			<g>
				<path class="st6" d="M231.6,39c0,1.7-1.2,2.8-2.9,2.8c-1.8,0-3.5-1.5-3.5-3.2s1.2-2.9,3-2.9S231.6,37.3,231.6,39z"/>
				<path class="st3" d="M228.7,41.9c-0.9,0-1.8-0.4-2.5-1c-0.7-0.7-1.1-1.5-1.1-2.3c0-0.9,0.3-1.6,0.9-2.1c0.6-0.6,1.3-0.8,2.2-0.8
					c1.8,0,3.6,1.7,3.6,3.4c0,0.9-0.3,1.6-0.8,2.1C230.4,41.6,229.6,41.9,228.7,41.9z M228.2,35.7c-1.8,0-2.9,1.1-2.9,2.8
					c0,1.6,1.7,3.2,3.5,3.2c1.7,0,2.9-1.1,2.9-2.7C231.6,37.4,229.9,35.7,228.2,35.7z"/>
			</g>
			<g>
				<path class="st6" d="M231.5,39.3c0,1.7-1.2,2.8-2.9,2.8c-1.8,0-3.5-1.5-3.5-3.2s1.2-2.9,3-2.9C229.8,36,231.5,37.6,231.5,39.3z"
					/>
				<path class="st3" d="M228.6,42.2c-0.9,0-1.8-0.4-2.5-1c-0.7-0.7-1.1-1.5-1.1-2.3c0-0.9,0.3-1.6,0.9-2.1c0.6-0.6,1.3-0.8,2.2-0.8
					c1.8,0,3.6,1.7,3.6,3.4c0,0.9-0.3,1.6-0.8,2.1C230.2,41.9,229.5,42.2,228.6,42.2z M228,36.1c-1.8,0-2.9,1.1-2.9,2.8
					c0,1.6,1.7,3.2,3.5,3.2c1.7,0,2.9-1.1,2.9-2.7C231.4,37.7,229.8,36.1,228,36.1z"/>
			</g>
			<g>
				<line class="st7" x1="221.9" y1="39.7" x2="222.2" y2="39.3"/>
				<path class="st3" d="M221.9,39.8C221.9,39.8,221.9,39.7,221.9,39.8c-0.1-0.1-0.1-0.1-0.1-0.1l0.3-0.4c0.1-0.1,0.1-0.1,0.1,0
					c0.1,0.1,0.1,0.1,0,0.1L221.9,39.8C222,39.7,222,39.8,221.9,39.8z"/>
			</g>
			<g>
				<path class="st8" d="M214.4,22.8c-1,2.5-1.6,5.4-1.6,9v0.1v0.1c0.1,0.1,0.3,0.9,1.5,1.8c0.4,0.3,0.9,0.7,1.7,1.1
					c-0.6-2-1.8-4.3-1.2-5.8c0.8-2,2.6,2.7,5.6,0.7C221.9,28.4,214.2,24,214.4,22.8z"/>
			</g>
			<g>
				
					<ellipse transform="matrix(0.7071 -0.7071 0.7071 0.7071 57.8124 177.9543)" class="st9" cx="243.7" cy="19.2" rx="3.3" ry="4.5"/>
			</g>
		</g>
		<path class="st10" d="M235.3,26.6c-0.1,1.2,0.3,3.9,3.6,4.4c0.3,0.1,0.7,0,1-0.1c2.1-0.9,10.6-4.4,12.3-8.8
			c0.1-0.3,0.1-0.5-0.1-0.8c-0.6-1.1-2.6-4.2-5.2-6.2c-0.1-0.1-0.3-0.1-0.4,0.1c-0.5,1.1-2.7,5.3-10.8,10.6
			C235.5,26,235.3,26.3,235.3,26.6z"/>
		<path class="st10" d="M220.3,29.5c1.1-0.3,2.8-1.1,3.1-3.6c0.1-0.4-0.1-0.9-0.3-1.2c-1.1-1.5-6.1-8.3-0.7-11.4
			c0,0-0.3-0.5-1.8,0.4c-0.4,0.3-0.8,0.6-1.2,0.9c-1.6,1.5-6.3,6.3-5.4,8.2c0.1,0.1,0.1,0.3,0.1,0.3c0.2,0.5,1,2.3,4.5,5.8
			C218.9,29.3,219.9,29.7,220.3,29.5z"/>
		<path class="st11" d="M245.3,17.4"/>
		<path class="st12" d="M243.9,19.2c0,0,2.3,1.7,2.5,2.3c0,0,2.5,4.2,2.5,4.4c0,0,0.7-0.6,1.1-0.9c0.5-0.5,0.9-0.9,1-1
			c0.3-0.3-0.5-1.8-1.7-3.4c0,0-1.7-0.2-2.2-1.2c0,0,0.2-2.5-1.1-3.1C246,16.4,245.3,17.6,243.9,19.2z"/>
	</g>
	<path class="st13" d="M229.1,20.4c0.4-0.1,1.7,2,1.7,2s2.3-0.2,2.6,0.2s-1.3,2.3-1.3,2.3s0.9,2.2,0.6,2.4c-0.3,0.3-2.5-0.5-2.5-0.5
		s-1.9,1.5-2.2,1.3c-0.3-0.2-0.3-2.5-0.3-2.5s-2-1.4-2-1.7c0.1-0.4,2.4-1,2.4-1S228.7,20.4,229.1,20.4z"/>
</g>
<g>
	<g>
		<g>
			<g>
				<path class="st2" d="M37.8,61.7l5.9-17H30.1c-6.5,0-10.8-4.4-10.8-13.5c0-9.1,4.3-13.3,10.8-13.3l16.2-0.1l-3.9-9.9l-0.9-2.3
					l2.1-0.9L54.9,0l-20,0C14.1,0,0,11.6,0,31.2c0,19.3,13.9,31.3,34.9,31.3h2.6L37.8,61.7z"/>
			</g>
		</g>
	</g>
	<g>
		<path class="st10" d="M45,7l17-7h20.4L60.7,62.5H40.4l15.3-44.6l-6.5,0L45,7z"/>
	</g>
	<polygon class="st2" points="161.3,0 140.9,0 136.7,12.1 132.6,0 112.2,0 126.6,41.5 133.8,62.5 139.7,62.5 154.2,62.5 146.9,41.5 
			"/>
	<path class="st2" d="M158.9,17.9h13.8c6.5,0,10.8,4.4,10.8,13.5c0,9.1-4.3,13.3-10.8,13.3h-20.9l6.1,17.9l10,0
		c20.8,0,34.9-11.6,34.9-31.2c0-19.3-13.9-31.3-34.9-31.3h-2.8L158.9,17.9z"/>
	<path class="st2" d="M108.5,0H86.2L64.5,62.5h22.1l2.8-9.6h14.6l2.8,9.6h23.2L108.5,0z M104.3,32.8c0,0,2.4,6,1.7,6.8
		c-0.7,0.7-7-1.3-7-1.3s-5.2,4.2-6.1,3.6c-0.9-0.6-0.7-6.9-0.7-6.9s-5.6-3.7-5.5-4.8c0.1-1.1,6.5-2.8,6.5-2.8s1.5-6.6,2.7-6.8
		c1.1-0.2,4.8,5.5,4.8,5.5s6.5-0.6,7.1,0.4C108.5,27.3,104.3,32.8,104.3,32.8z"/>
</g>
</svg>
